<!-- icon666.com - MILLIONS vector ICONS FREE --><svg id="Capa_1" enable-background="new 0 0 512 512" viewBox="0 0 512 512" xmlns="http://www.w3.org/2000/svg"><g><path d="m104.65 89.59c-8.15 0-14.77 6.62-14.77 14.77s6.62 14.78 14.77 14.78h14.78v-14.78c0-8.15-6.63-14.77-14.78-14.77z"></path><path d="m193.46 291.78h-32.39v60h32.39c16.54 0 30-13.46 30-30s-13.46-30-30-30z"></path><path d="m0 0v512h512v-512zm69.88 209.59v-30h21.1c15.69 0 28.45-12.77 28.45-28.46v-1.99h-14.78c-24.69 0-44.77-20.09-44.77-44.78s20.08-44.77 44.77-44.77 44.78 20.08 44.78 44.77v46.77c0 32.23-26.22 58.46-58.45 58.46zm123.58 172.19h-32.39v50h-30v-170h62.39c33.08 0 60 26.92 60 60 0 33.09-26.92 60-60 60zm62.58-172.19h-30v-38h-10.22c-27.2 0-49.33-22.13-49.33-49.34v-60.66h30v60.66c0 10.66 8.67 19.34 19.33 19.34h10.22v-80h30zm131.83 166.65c0 30.63-24.92 55.54-55.54 55.54-30.63 0-55.55-24.91-55.55-55.54v-51.51h30v51.51c0 14.08 11.46 25.54 25.55 25.54 14.08 0 25.54-11.46 25.54-25.54v-51.51h30zm64-166.65h-30v-30h30zm0-60h-30v-30h30zm0-60h-30v-30h30z"></path></g></svg>